<svg width="48" height="48" viewBox="0 0 48 48" fill="none" xmlns="http://www.w3.org/2000/svg">
<path d="M45 5.03571H18.4286C18.1928 5.03571 18 5.22856 18 5.46428V8.46428C18 8.69999 18.1928 8.89285 18.4286 8.89285H45C45.2357 8.89285 45.4286 8.69999 45.4286 8.46428V5.46428C45.4286 5.22856 45.2357 5.03571 45 5.03571ZM45 27.75H18.4286C18.1928 27.75 18 27.9429 18 28.1786V31.1786C18 31.4143 18.1928 31.6071 18.4286 31.6071H45C45.2357 31.6071 45.4286 31.4143 45.4286 31.1786V28.1786C45.4286 27.9429 45.2357 27.75 45 27.75ZM45 39.1071H2.99998C2.76427 39.1071 2.57141 39.3 2.57141 39.5357V42.5357C2.57141 42.7714 2.76427 42.9643 2.99998 42.9643H45C45.2357 42.9643 45.4286 42.7714 45.4286 42.5357V39.5357C45.4286 39.3 45.2357 39.1071 45 39.1071ZM45 16.3928H2.99998C2.76427 16.3928 2.57141 16.5857 2.57141 16.8214V19.8214C2.57141 20.0571 2.76427 20.25 2.99998 20.25H45C45.2357 20.25 45.4286 20.0571 45.4286 19.8214V16.8214C45.4286 16.5857 45.2357 16.3928 45 16.3928Z" fill="#00C4F0"/>
</svg>
