<svg width="46" height="53" viewBox="0 0 46 53" fill="none" xmlns="http://www.w3.org/2000/svg">
<path d="M18.5059 22.5C20.0059 22.5 21.2209 23.625 21.1934 25C21.1934 26.375 20.0084 27.5 18.5059 27.5C17.0309 27.5 15.8159 26.375 15.8159 25C15.8159 23.625 17.0034 22.5 18.5059 22.5ZM28.1259 22.5C29.6284 22.5 30.8159 23.625 30.8159 25C30.8159 26.375 29.6284 27.5 28.1259 27.5C26.6509 27.5 25.4384 26.375 25.4384 25C25.4384 23.625 26.6234 22.5 28.1259 22.5ZM40.5434 0C43.4509 0 45.8159 2.415 45.8159 5.4075V52.5L40.2884 47.5125L37.1759 44.5725L33.8834 41.4475L35.2484 46.305H6.08842C3.18092 46.305 0.815918 43.89 0.815918 40.8975V5.4075C0.815918 2.415 3.18092 0 6.08842 0H40.5409H40.5434ZM30.6184 34.2825C36.3009 34.1 38.4884 30.2925 38.4884 30.2925C38.4884 21.84 34.7834 14.9875 34.7834 14.9875C31.0834 12.155 27.5584 12.2325 27.5584 12.2325L27.1984 12.6525C31.5709 14.0175 33.6009 15.9875 33.6009 15.9875C31.2136 14.6425 28.5825 13.7858 25.8609 13.4675C24.1345 13.2725 22.3907 13.2893 20.6684 13.5175C20.5134 13.5175 20.3834 13.545 20.2309 13.57C19.3309 13.65 17.1434 13.99 14.3934 15.225C13.4434 15.67 12.8759 15.9875 12.8759 15.9875C12.8759 15.9875 15.0109 13.9125 19.6384 12.5475L19.3809 12.2325C19.3809 12.2325 15.8584 12.155 12.1559 14.99C12.1559 14.99 8.45342 21.84 8.45342 30.2925C8.45342 30.2925 10.6134 34.0975 16.2959 34.2825C16.2959 34.2825 17.2459 33.1025 18.0209 32.105C14.7534 31.105 13.5209 29.005 13.5209 29.005C13.5209 29.005 13.7759 29.19 14.2384 29.4525C14.2634 29.4775 14.2884 29.505 14.3409 29.53C14.4184 29.585 14.4959 29.61 14.5734 29.6625C15.2159 30.03 15.8584 30.3175 16.4484 30.555C17.5034 30.975 18.7634 31.395 20.2309 31.685C22.4292 32.1159 24.6894 32.1244 26.8909 31.71C28.1732 31.4811 29.4242 31.1027 30.6184 30.5825C31.5184 30.24 32.5209 29.74 33.5759 29.0325C33.5759 29.0325 32.2909 31.185 28.9209 32.1575C29.6934 33.155 30.6209 34.2825 30.6209 34.2825H30.6184Z" fill="#E4E4E4"/>
</svg>
