<svg width="51" height="51" viewBox="0 0 51 51" fill="none" xmlns="http://www.w3.org/2000/svg">
<path d="M25.8159 0.25C12.0159 0.25 0.815918 11.45 0.815918 25.25C0.815918 39.05 12.0159 50.25 25.8159 50.25C39.6159 50.25 50.8159 39.05 50.8159 25.25C50.8159 11.45 39.6159 0.25 25.8159 0.25ZM37.4159 17.25C37.0409 21.2 35.4159 30.8 34.5909 35.225C34.2409 37.1 33.5409 37.725 32.8909 37.8C31.4409 37.925 30.3409 36.85 28.9409 35.925C26.7409 34.475 25.4909 33.575 23.3659 32.175C20.8909 30.55 22.4909 29.65 23.9159 28.2C24.2909 27.825 30.6909 22 30.8159 21.475C30.8333 21.3955 30.831 21.3129 30.8092 21.2345C30.7874 21.1561 30.7468 21.0842 30.6909 21.025C30.5409 20.9 30.3409 20.95 30.1659 20.975C29.9409 21.025 26.4409 23.35 19.6159 27.95C18.6159 28.625 17.7159 28.975 16.9159 28.95C16.0159 28.925 14.3159 28.45 13.0409 28.025C11.4659 27.525 10.2409 27.25 10.3409 26.375C10.3909 25.925 11.0159 25.475 12.1909 25C19.4909 21.825 24.3409 19.725 26.7659 18.725C33.7159 15.825 35.1409 15.325 36.0909 15.325C36.2909 15.325 36.7659 15.375 37.0659 15.625C37.3159 15.825 37.3909 16.1 37.4159 16.3C37.3909 16.45 37.4409 16.9 37.4159 17.25Z" fill="#E4E4E4"/>
</svg>
