<svg width="51" height="51" viewBox="0 0 51 51" fill="none" xmlns="http://www.w3.org/2000/svg">
<path d="M20.5847 0.257227L22.1034 0.250977H29.5284L31.0492 0.257227L32.9534 0.27806L33.8555 0.292643L34.7263 0.31556L35.5659 0.344727L36.3743 0.37806L37.1534 0.42181L37.9034 0.473893L38.6222 0.536393L39.3159 0.605143C42.9409 1.01348 45.4263 1.88848 47.3013 3.76348C49.1763 5.63848 50.0513 8.12181 50.4597 11.7489L50.5305 12.4426L50.5909 13.1635L50.643 13.9135L50.6847 14.6906L50.7367 15.9156L50.7618 16.7697L50.7888 18.1114L50.8076 20.0176L50.8159 22.0593L50.8138 28.9614L50.8076 30.4822L50.7868 32.3864L50.7722 33.2885L50.7492 34.1593L50.7201 34.9989L50.6867 35.8072L50.643 36.5864L50.5909 37.3364L50.5284 38.0551L50.4597 38.7489C50.0513 42.3739 49.1763 44.8593 47.3013 46.7343C45.4263 48.6093 42.943 49.4843 39.3159 49.8926L38.6222 49.9635L37.9013 50.0239L37.1513 50.076L36.3743 50.1176L35.1493 50.1697L34.2951 50.1947L32.9534 50.2218L31.0472 50.2406L29.0055 50.2489L22.1034 50.2468L20.5826 50.2406L18.6784 50.2197L17.7763 50.2051L16.9055 50.1822L16.0659 50.1531L15.2576 50.1197L14.4784 50.076L13.7284 50.0239L13.0097 49.9614L12.3159 49.8926C8.69092 49.4843 6.2055 48.6093 4.3305 46.7343C2.4555 44.8593 1.5805 42.376 1.17217 38.7489L1.10133 38.0551L1.04092 37.3343L0.988835 36.5843L0.947168 35.8072L0.895085 34.5822L0.870085 33.7281L0.843001 32.3864L0.824251 30.4801L0.815918 28.4385L0.818001 21.5364L0.824251 20.0156L0.845085 18.1114L0.859668 17.2093L0.882585 16.3385L0.911751 15.4989L0.945085 14.6906L0.988835 13.9114L1.04092 13.1614L1.10342 12.4426L1.17217 11.7489C1.5805 8.12389 2.4555 5.63848 4.3305 3.76348C6.2055 1.88848 8.68883 1.01348 12.3159 0.605143L13.0097 0.53431L13.7305 0.473893L14.4805 0.42181L15.2576 0.380143L16.4826 0.32806L17.3368 0.30306L18.6784 0.275977L20.5847 0.257227ZM14.9618 15.4572H9.25342C9.52425 28.4572 16.0243 36.2697 27.4201 36.2697H28.0659V28.8322C32.2534 29.2489 35.4201 32.3114 36.6909 36.2697H42.6076C40.9826 30.3531 36.7118 27.0822 34.0451 25.8322C36.7118 24.2906 40.4618 20.5406 41.3576 15.4572H35.9826C34.8159 19.5822 31.3576 23.3322 28.0659 23.6864V15.4572H22.6909V29.8739C19.3576 29.0406 15.1493 24.9989 14.9618 15.4572Z" fill="#E4E4E4"/>
</svg>
